<?xml version="1.0" standalone="no"?>
<!DOCTYPE svg PUBLIC "-//W3C//DTD SVG 20010904//EN"
 "http://www.w3.org/TR/2001/REC-SVG-20010904/DTD/svg10.dtd">
<svg version="1.0" xmlns="http://www.w3.org/2000/svg"
 width="800.000000pt" height="600.000000pt" viewBox="0 0 800.000000 600.000000"
 preserveAspectRatio="xMidYMid meet">
<metadata>
Created by potrace 1.16, written by Peter Selinger 2001-2019
</metadata>
<g transform="translate(0.000000,600.000000) scale(0.100000,-0.100000)"
fill="#000000" stroke="none">
<path d="M803 4153 l-472 -368 -1 -157 0 -158 474 369 473 369 474 -368 474
-368 3 146 c1 80 1 151 -2 157 -3 10 -939 745 -948 745 -2 0 -216 -165 -475
-367z"/>
<path d="M2300 3655 l0 -805 90 0 90 0 0 360 0 360 170 0 170 0 0 -360 0 -360
90 0 90 0 0 805 0 805 -90 0 -90 0 0 -310 0 -310 -170 0 -170 0 0 310 0 310
-90 0 -90 0 0 -805z"/>
<path d="M5300 3655 l0 -805 90 0 90 0 0 345 0 345 190 0 190 0 0 140 0 140
-190 0 -190 0 0 185 0 185 220 0 220 0 0 135 0 135 -310 0 -310 0 0 -805z"/>
<path d="M7590 4240 l0 -219 -36 24 c-51 34 -122 34 -180 0 -74 -43 -124 -134
-160 -290 -16 -66 -19 -120 -19 -305 0 -199 3 -235 22 -312 35 -137 86 -228
156 -279 54 -39 136 -41 191 -4 27 18 36 21 36 10 0 -12 16 -15 80 -15 l80 0
0 805 0 805 -85 0 -85 0 0 -220z m-78 -440 c34 -26 66 -103 78 -187 13 -88 13
-261 0 -343 -14 -87 -57 -172 -94 -185 -26 -9 -31 -6 -61 27 -50 59 -66 123
-72 288 -8 213 18 342 78 398 28 27 40 27 71 2z"/>
<path d="M3274 4051 c-49 -22 -101 -81 -137 -155 -46 -93 -67 -205 -74 -381
-11 -306 42 -523 153 -625 54 -49 80 -60 147 -60 129 1 226 100 276 280 47
167 49 486 6 655 -36 139 -115 259 -191 291 -46 19 -131 17 -180 -5z m145
-259 c15 -15 39 -54 52 -87 22 -56 23 -74 24 -250 0 -216 -13 -280 -70 -341
-40 -42 -72 -44 -108 -6 -44 46 -67 113 -79 232 -22 205 14 396 84 455 38 32
63 32 97 -3z"/>
<path d="M3955 4061 c-11 -5 -32 -20 -47 -34 l-28 -26 0 24 c0 24 -2 25 -80
25 l-80 0 0 -600 0 -600 85 0 85 0 0 358 c0 196 5 390 10 431 24 182 134 235
160 76 5 -33 10 -241 10 -462 l0 -403 84 0 85 0 3 423 c3 365 5 427 19 457 38
80 91 103 125 53 18 -26 19 -58 22 -480 l3 -453 84 0 85 0 0 468 c0 510 -4
557 -57 653 -36 68 -73 92 -144 97 -69 5 -114 -18 -159 -79 l-28 -39 -26 41
c-37 55 -80 79 -141 78 -27 0 -59 -4 -70 -8z"/>
<path d="M4845 4056 c-84 -38 -162 -169 -197 -331 -30 -143 -30 -418 0 -558
35 -163 99 -275 183 -318 50 -25 149 -25 204 0 96 43 182 211 188 366 l2 59
-75 17 c-77 18 -90 17 -90 -6 0 -33 -43 -147 -66 -175 -69 -82 -165 13 -189
188 l-7 52 216 0 216 0 0 118 c-1 306 -84 532 -217 588 -41 18 -129 17 -168 0z
m140 -269 c32 -32 65 -114 65 -164 0 -23 -1 -23 -120 -23 -119 0 -120 0 -120
23 0 81 71 197 120 197 12 0 37 -15 55 -33z"/>
<path d="M6149 4050 c-78 -41 -141 -142 -181 -288 -16 -60 -22 -118 -25 -264
-6 -209 4 -311 43 -426 52 -155 127 -232 235 -240 86 -6 121 4 174 50 74 65
119 172 149 355 6 35 5 36 -113 62 -51 11 -61 8 -61 -19 0 -40 -40 -144 -66
-171 -49 -51 -107 -31 -149 51 -11 21 -45 162 -45 185 0 3 97 5 216 5 l217 0
-6 173 c-7 232 -42 359 -129 469 -58 73 -178 101 -259 58z m144 -255 c35 -35
57 -85 64 -145 l6 -50 -123 0 -123 0 7 41 c10 61 45 137 74 159 34 27 64 25
95 -5z"/>
<path d="M6769 4047 c-121 -64 -194 -257 -206 -542 -13 -336 65 -582 208 -655
83 -43 216 -18 274 52 59 70 115 225 119 327 l1 44 -75 18 c-41 10 -78 18 -82
19 -4 0 -12 -26 -18 -57 -33 -159 -104 -214 -175 -138 -37 38 -62 104 -72 182
l-6 53 217 0 216 0 0 98 c0 307 -80 536 -211 603 -54 27 -134 25 -190 -4z
m155 -261 c31 -32 48 -73 61 -148 l7 -38 -127 0 c-116 0 -126 1 -121 18 2 9 8
33 11 52 16 78 72 150 118 150 11 0 34 -15 51 -34z"/>
<path d="M923 3781 l-353 -266 0 -362 0 -363 240 0 240 0 0 240 0 240 230 0
230 0 0 -240 0 -240 240 0 240 0 0 363 -1 362 -321 240 c-177 132 -337 252
-357 266 l-36 26 -352 -266z"/>
</g>
</svg>
